<svg xmlns="http://www.w3.org/2000/svg" xmlns:xlink="http://www.w3.org/1999/xlink" width="500" zoomAndPan="magnify" viewBox="0 0 375 374.999991" height="500" preserveAspectRatio="xMidYMid meet" version="1.0"><defs><g/><clipPath id="9d4f6090bc"><path d="M 52 80.046875 L 321 80.046875 L 321 349 L 52 349 Z M 52 80.046875 " clip-rule="nonzero"/></clipPath></defs><g clip-path="url(#9d4f6090bc)"><path fill="#1297e0" d="M 94.160156 233.652344 C 93.515625 230.507812 93.019531 227.320312 92.699219 224.136719 C 92.363281 220.875 92.195312 217.652344 92.195312 214.503906 C 92.195312 203.328125 94.175781 192.3125 97.960938 181.949219 C 101.742188 171.585938 107.328125 161.886719 114.539062 153.339844 L 119.722656 157.738281 C 113.027344 165.675781 107.847656 174.671875 104.339844 184.269531 C 100.835938 193.867188 99.003906 204.09375 99.003906 214.503906 C 99.003906 217.550781 99.152344 220.539062 99.449219 223.441406 C 99.75 226.421875 100.203125 229.371094 100.808594 232.296875 Z M 106.921875 294.539062 C 91.839844 279.429688 81.648438 260.707031 76.902344 240.691406 C 72.148438 220.683594 72.84375 199.371094 79.519531 179.082031 L 89.855469 182.488281 C 83.816406 200.824219 83.199219 220.089844 87.492188 238.179688 C 91.785156 256.261719 100.996094 273.183594 114.621094 286.832031 Z M 198.460938 327.070312 C 183.460938 328.625 168.472656 327.152344 154.332031 322.902344 C 140.191406 318.648438 126.859375 311.597656 115.183594 302.003906 L 122.074219 293.609375 C 132.582031 302.246094 144.628906 308.605469 157.4375 312.457031 C 170.253906 316.308594 183.808594 317.644531 197.351562 316.242188 Z M 73.324219 256.25 C 65.460938 234.792969 63.96875 212.027344 68.332031 190.449219 C 72.699219 168.875 82.933594 148.488281 98.515625 131.789062 L 100.492188 133.640625 C 85.261719 149.960938 75.253906 169.886719 70.988281 190.976562 C 66.722656 212.066406 68.1875 234.328125 75.871094 255.3125 Z M 123.0625 111.609375 C 126.570312 109.425781 130.164062 107.4375 133.824219 105.648438 C 137.5 103.855469 141.28125 102.242188 145.136719 100.820312 C 158.527344 95.894531 172.59375 93.414062 186.660156 93.402344 C 200.71875 93.386719 214.785156 95.832031 228.191406 100.722656 L 227.261719 103.28125 C 214.144531 98.492188 200.394531 96.105469 186.660156 96.121094 C 172.921875 96.132812 159.175781 98.554688 146.070312 103.378906 C 142.3125 104.761719 138.617188 106.335938 135.011719 108.097656 C 131.386719 109.867188 127.871094 111.816406 124.484375 113.921875 Z M 244.605469 108.148438 C 250.964844 111.617188 256.996094 115.640625 262.601562 120.167969 C 268.210938 124.695312 273.421875 129.726562 278.164062 135.210938 L 276.109375 136.984375 C 271.480469 131.632812 266.382812 126.710938 260.894531 122.289062 C 255.402344 117.855469 249.515625 113.921875 243.308594 110.535156 Z M 288.492188 149.027344 C 290.890625 152.761719 293.074219 156.617188 295.039062 160.566406 C 297.007812 164.527344 298.761719 168.601562 300.285156 172.769531 C 311.625 203.714844 309.570312 236.363281 297.015625 264.269531 C 284.460938 292.179688 261.40625 315.347656 230.757812 327.332031 L 229.769531 324.800781 C 259.730469 313.082031 282.269531 290.4375 294.542969 263.15625 C 306.816406 235.875 308.820312 203.960938 297.738281 173.714844 C 296.246094 169.648438 294.527344 165.664062 292.605469 161.789062 C 290.683594 157.910156 288.539062 154.136719 286.210938 150.503906 Z M 191.089844 335.535156 C 169.003906 336.320312 147.574219 331.027344 128.859375 320.789062 C 110.136719 310.542969 94.121094 295.335938 82.84375 276.296875 L 85.175781 274.914062 C 96.199219 293.527344 111.859375 308.390625 130.15625 318.402344 C 148.453125 328.414062 169.402344 333.582031 190.992188 332.816406 Z M 105.472656 321.183594 C 85.375 305.804688 70.453125 285.394531 61.722656 262.605469 C 52.992188 239.824219 50.453125 214.652344 55.109375 189.761719 L 61.785156 191.011719 C 57.363281 214.667969 59.765625 238.558594 68.054688 260.183594 C 76.339844 281.804688 90.507812 301.164062 109.59375 315.773438 Z M 66.085938 156.265625 C 68.054688 152.171875 70.234375 148.164062 72.609375 144.292969 C 74.984375 140.410156 77.566406 136.640625 80.328125 133.019531 C 89.929688 120.429688 101.613281 109.730469 114.765625 101.335938 C 127.902344 92.941406 142.503906 86.835938 157.957031 83.425781 L 159.421875 90.058594 C 144.75 93.296875 130.882812 99.09375 118.414062 107.058594 C 105.945312 115.027344 94.855469 125.175781 85.734375 137.148438 C 83.109375 140.589844 80.664062 144.152344 78.414062 147.835938 C 76.160156 151.511719 74.085938 155.316406 72.210938 159.222656 Z M 177.703125 80.578125 C 185.707031 80.03125 193.726562 80.203125 201.667969 81.09375 C 209.613281 81.980469 217.484375 83.578125 225.15625 85.875 L 223.210938 92.402344 C 215.910156 90.222656 208.445312 88.703125 200.917969 87.863281 C 193.375 87.023438 185.753906 86.851562 178.15625 87.375 Z M 243.019531 92.644531 C 247.488281 94.714844 251.824219 97.019531 256 99.539062 C 260.167969 102.058594 264.21875 104.824219 268.140625 107.824219 C 297.132812 130.007812 314.597656 161.769531 319.433594 195.347656 C 324.261719 228.925781 316.457031 264.332031 294.90625 293.808594 L 289.433594 289.792969 C 309.886719 261.808594 317.296875 228.1875 312.703125 196.304688 C 308.113281 164.425781 291.535156 134.273438 264.019531 113.226562 C 260.347656 110.410156 256.492188 107.789062 252.488281 105.367188 C 248.492188 102.953125 244.378906 100.765625 240.167969 98.816406 Z M 262.6875 325.136719 C 242.488281 339.042969 219.308594 346.875 195.738281 348.449219 C 172.15625 350.027344 148.144531 345.359375 126.289062 334.277344 L 129.347656 328.199219 C 150.09375 338.722656 172.890625 343.160156 195.285156 341.660156 C 217.691406 340.160156 239.703125 332.734375 258.855469 319.542969 Z M 92.445312 152.320312 C 94.574219 149.082031 96.839844 145.976562 99.238281 143.039062 C 101.722656 139.984375 104.292969 137.121094 106.929688 134.480469 C 116.351562 125.039062 127.3125 117.414062 139.257812 111.863281 C 151.179688 106.316406 164.0625 102.855469 177.347656 101.734375 L 178.238281 112.597656 C 166.214844 113.609375 154.566406 116.742188 143.804688 121.75 C 133.0625 126.746094 123.164062 133.640625 114.621094 142.191406 C 112.101562 144.71875 109.773438 147.292969 107.648438 149.898438 C 105.4375 152.617188 103.378906 155.425781 101.503906 158.289062 Z M 92.445312 152.320312 " fill-opacity="1" fill-rule="nonzero"/></g><g fill="#1297e0" fill-opacity="1"><g transform="translate(112.728026, 276.542086)"><g><path d="M 82.9375 -75.921875 C 86.644531 -83.429688 90.007812 -90.644531 93.03125 -97.5625 C 99.664062 -112.78125 103.738281 -120.828125 105.25 -121.703125 C 106.757812 -122.578125 110.832031 -123.015625 117.46875 -123.015625 C 126.144531 -123.015625 131.429688 -122.796875 133.328125 -122.359375 C 135.234375 -121.921875 136.1875 -120.726562 136.1875 -118.78125 C 136.1875 -117.507812 134.332031 -113.410156 130.625 -106.484375 L 116.296875 -76.9375 L 110.140625 -64.515625 C 104.679688 -53.785156 101.078125 -46.273438 99.328125 -41.984375 C 105.566406 -31.253906 113.125 -25.890625 122 -25.890625 C 127.457031 -25.890625 133.503906 -29.109375 140.140625 -35.546875 L 144.8125 -33.640625 C 139.445312 -16.578125 135.007812 -6.335938 131.5 -2.921875 C 127.988281 0.484375 124.085938 2.1875 119.796875 2.1875 C 115.609375 2.1875 111.460938 0.359375 107.359375 -3.296875 C 103.265625 -6.953125 97.953125 -16.140625 91.421875 -30.859375 C 84.109375 -15.359375 77.28125 -5.898438 70.9375 -2.484375 C 64.601562 0.929688 58.117188 2.640625 51.484375 2.640625 C 38.421875 2.640625 28.253906 -2.820312 20.984375 -13.75 C 13.722656 -24.675781 10.09375 -39.207031 10.09375 -57.34375 C 10.09375 -75.28125 13.75 -91.125 21.0625 -104.875 C 28.375 -118.625 37.539062 -125.5 48.5625 -125.5 C 56.457031 -125.5 62.960938 -122.160156 68.078125 -115.484375 C 73.203125 -108.804688 78.15625 -95.617188 82.9375 -75.921875 Z M 77.96875 -63.625 C 72.894531 -76.40625 67.847656 -84.453125 62.828125 -87.765625 C 57.804688 -91.078125 52.566406 -92.734375 47.109375 -92.734375 C 38.523438 -92.734375 32.328125 -88.539062 28.515625 -80.15625 C 24.710938 -71.769531 22.8125 -62.894531 22.8125 -53.53125 C 22.8125 -44.851562 24.566406 -37.710938 28.078125 -32.109375 C 31.585938 -26.503906 36.90625 -23.703125 44.03125 -23.703125 C 49.195312 -23.703125 53.875 -25.601562 58.0625 -29.40625 C 62.257812 -33.207031 68.894531 -44.613281 77.96875 -63.625 Z M 77.96875 -63.625 "/></g></g></g></svg>